<svg xmlns="http://www.w3.org/2000/svg" viewBox="0 0 205.31 205.2"><defs><style>.cls-1{fill:#201600;}</style></defs><g id="Layer_2" data-name="Layer 2"><g id="Layer_1-2" data-name="Layer 1"><path class="cls-1" d="M64.88,131.83,9.6,187.12,1.77,195c-5.47,5.46,3,14,8.48,8.48l55.28-55.28,7.84-7.83c5.46-5.47-3-14-8.49-8.49Z"/><path class="cls-1" d="M65.41,23.82A83,83,0,0,0,49,116.32c14.14,31,48,50.5,81.92,47.11,34.17-3.41,63.68-28.07,72-61.64a82.94,82.94,0,0,0-34-88.15C136.79-8.16,92.9-3.14,65.41,23.82c-5.52,5.42,3,13.9,8.49,8.49C94.63,12,126.64,5.73,153.12,18.38a70.92,70.92,0,0,1,40,70.28c-2.63,29.23-24.59,54.06-52.89,61.11s-58.89-4.77-75-29C46.79,93,50.68,56,73.9,32.31,79.31,26.79,70.83,18.3,65.41,23.82Z"/></g></g></svg>